<svg xmlns="http://www.w3.org/2000/svg" viewBox="0 0 434 126.29"><g id="Capa_2" data-name="Capa 2"><g id="Recorte"><g id="Cream"><path d="M55.24,62.11H77.72A30.23,30.23,0,0,1,65.05,83q-10.14,7.53-25.5,7.52-18.63,0-29.09-12.1Q0,66.69,0,44.78,0,23.87,10.13,12.09,20.6,0,39.23,0q19.6,0,30.4,11.77a44.89,44.89,0,0,1,8.5,16.67H55.24A19.24,19.24,0,0,0,52,23.54Q47.72,19,39.88,19a15.93,15.93,0,0,0-11.77,4.58q-5.88,6.54-5.88,21.57t5.88,21.25q4.25,5.24,12.75,5.23c3.7,0,7.33-.27,11.08-2.55C54.61,67.42,55.24,62.11,55.24,62.11Z"/><path d="M133.62,2.83V26.27h-7.36q-9.35,0-13.86,4.62t-4.52,14.5V80.44A10,10,0,0,1,98,90.54H85.31V48.07q0-12.89,3.71-21.63a35.72,35.72,0,0,1,10.14-14c4.08-3.3,7.2-5.34,14.33-7.26C120.13,3.35,133.62,2.83,133.62,2.83Z"/><path d="M178.17,2.83q-18.46,0-28.84,11.71-10.05,11.4-10,31.67,0,21.23,10.36,32.62Q160,90.55,178.49,90.54q15.22,0,25.27-7.28,10.05-7,13.61-20.27h-16.2a9.77,9.77,0,0,0-6,1.59c-1.41,1.06-3.24,3.53-5.85,5.2-1.88,1.39-5.87,2.4-9.54,2.4q-8.43,0-12.64-5.07-4.54-4.76-4.86-14.57h56.34c0-.4,0-4.85,0-5.7q0-20.9-10.37-32.61Q197.6,2.83,178.17,2.83ZM162.64,38.22Q163,30,167.48,25.61a15.92,15.92,0,0,1,11.61-4.41q7.74,0,11.93,4.41,3.87,4.11,4.52,12.61Z"/><path d="M254.56,37.16c-10.73,2.45-14.57,3.32-20.46,8.38-4.93,4.23-7.8,9.54-7.8,18.41q0,14.25,8.71,20.42a34.17,34.17,0,0,0,20.31,6.18,133,133,0,0,0,13.39-.79,40.19,40.19,0,0,0,14.35-4.28,28.41,28.41,0,0,0,11.13-10.29q4.67-7.12,4.67-19.79V26.58a20.25,20.25,0,0,0-9.35-17.74q-9-6-27.09-6-16.13,0-24.83,7.28a24.26,24.26,0,0,0-9,16.15h21.61a8.73,8.73,0,0,1,5.15-4.75,23.29,23.29,0,0,1,8.07-1.27c11,.14,14.48,4.52,13.93,7.64C276.75,31.88,260.11,36,254.56,37.16Zm23.12,9.63a.14.14,0,0,1,.19.13v7.7q0,8.87-5.16,13.93t-14.19,5.07q-5.47,0-8.38-2.53h0a10.17,10.17,0,0,1-2.89-7.59c0-.17,0-.34,0-.5A10.75,10.75,0,0,1,254,53.73,27.61,27.61,0,0,1,258,52.39c2.36-.52,7.27-1.57,7.27-1.57A62.32,62.32,0,0,0,277.68,46.79Z"/><path d="M407.12,24.43q4.69,3.56,4.7,11.29V79.58a10.53,10.53,0,0,0,11,11H434V40.23q0-22.56-11.94-30a48.7,48.7,0,0,0-26.15-7.41,63.84,63.84,0,0,0-13.72,2.09,28.56,28.56,0,0,0-11.46,6,30.55,30.55,0,0,0-12.92-6.45,65.08,65.08,0,0,0-14.52-1.61,50.05,50.05,0,0,0-25.35,8.06q-11.46,7.42-11.46,29.34V90.54h12.68a9.9,9.9,0,0,0,9.9-9.9V35.72c0-5.16,1.5-8.92,4.53-11.29a16.36,16.36,0,0,1,10.35-3.55,17,17,0,0,1,10.52,3.55q4.69,3.56,4.69,11.29V90.54h22.18V35.72q0-7.74,4.7-11.29a17.44,17.44,0,0,1,21.09,0Z"/></g><g id="Kicks"><path d="M64.35,116.79l-2.45,2.64V126H57.18V103.09H61.9v10.37L64,110.62l5.83-7.53h5.8l-8.12,10.17L75.84,126H70.23Z"/><path d="M140.56,126h-4.71V103.09h4.71Z"/><path d="M220.83,118.35a8.09,8.09,0,0,1-2.73,5.81,9.55,9.55,0,0,1-6.48,2.13,8.62,8.62,0,0,1-6.93-3q-2.52-3-2.52-8.13v-1.4a13.6,13.6,0,0,1,1.17-5.81,8.63,8.63,0,0,1,3.32-3.86,10.4,10.4,0,0,1,11.4.78,8.7,8.7,0,0,1,2.8,5.95h-4.72a4.73,4.73,0,0,0-1.23-3.21,4.55,4.55,0,0,0-3.23-1,4,4,0,0,0-3.53,1.69,9.47,9.47,0,0,0-1.2,5.24v1.73a10.12,10.12,0,0,0,1.12,5.42,4,4,0,0,0,3.55,1.72,4.69,4.69,0,0,0,3.26-1,4.5,4.5,0,0,0,1.23-3.09Z"/><path d="M289,116.79l-2.45,2.64V126h-4.71V103.09h4.71v10.37l2.08-2.84,5.83-7.53h5.8l-8.13,10.17L300.51,126H294.9Z"/><path d="M372.09,120a2.41,2.41,0,0,0-.95-2,12.18,12.18,0,0,0-3.39-1.51,23.5,23.5,0,0,1-3.88-1.57q-3.9-2.1-3.9-5.67a5.53,5.53,0,0,1,1-3.31,6.77,6.77,0,0,1,3-2.27,11.37,11.37,0,0,1,4.39-.81,10.34,10.34,0,0,1,4.37.88,7,7,0,0,1,3,2.51,6.61,6.61,0,0,1,1.06,3.68H372.1a3.11,3.11,0,0,0-1-2.45,4.06,4.06,0,0,0-2.78-.87,4.35,4.35,0,0,0-2.69.73,2.3,2.3,0,0,0-.95,1.93,2.21,2.21,0,0,0,1.12,1.87,12.78,12.78,0,0,0,3.31,1.41,14.42,14.42,0,0,1,5.86,3,6,6,0,0,1,1.84,4.47,5.51,5.51,0,0,1-2.25,4.66,9.87,9.87,0,0,1-6.05,1.69,11.77,11.77,0,0,1-4.81-1,7.63,7.63,0,0,1-3.31-2.65,6.78,6.78,0,0,1-1.14-3.9H364q0,3.8,4.53,3.79a4.41,4.41,0,0,0,2.62-.68A2.23,2.23,0,0,0,372.09,120Z"/></g></g></g></svg>