<svg xmlns="http://www.w3.org/2000/svg" viewBox="0 0 116 33.75"><g id="Capa_2" data-name="Capa 2"><g id="Recorte"><g id="Cream"><path d="M14.77,16.6h6a8,8,0,0,1-3.38,5.59,11.14,11.14,0,0,1-6.82,2A9.73,9.73,0,0,1,2.8,21Q0,17.82,0,12q0-5.6,2.71-8.74A9.73,9.73,0,0,1,10.48,0q5.25,0,8.13,3.15A11.82,11.82,0,0,1,20.88,7.6H14.77a5.37,5.37,0,0,0-.88-1.31,4.21,4.21,0,0,0-3.23-1.22A4.3,4.3,0,0,0,7.51,6.29c-1,1.17-1.57,3.09-1.57,5.77s.53,4.57,1.57,5.68a4.15,4.15,0,0,0,3.41,1.39,5.3,5.3,0,0,0,3-.68C14.6,18,14.77,16.6,14.77,16.6Z"/><path d="M35.72.76V7h-2A5,5,0,0,0,30,8.26a5.37,5.37,0,0,0-1.2,3.87V21.5a2.68,2.68,0,0,1-2.65,2.7H22.8V12.85a14.84,14.84,0,0,1,1-5.78A9.73,9.73,0,0,1,26.5,3.31a9,9,0,0,1,3.83-1.94A33.24,33.24,0,0,1,35.72.76Z"/><path d="M47.62.76a9.76,9.76,0,0,0-7.71,3.13q-2.69,3-2.68,8.46,0,5.67,2.77,8.72a9.76,9.76,0,0,0,7.71,3.13,11.19,11.19,0,0,0,6.75-1.95,9.23,9.23,0,0,0,3.64-5.41H53.77a2.63,2.63,0,0,0-1.6.42,18.08,18.08,0,0,1-1.56,1.39,5,5,0,0,1-2.56.64,4.13,4.13,0,0,1-3.37-1.35,5.72,5.72,0,0,1-1.3-3.9h15c0-.1,0-1.29,0-1.52q0-5.58-2.78-8.72C53.77,1.77,51.08.76,47.62.76Zm-4.15,9.46a4.8,4.8,0,0,1,1.29-3.37,4.25,4.25,0,0,1,3.11-1.18,4.18,4.18,0,0,1,3.19,1.18,5.34,5.34,0,0,1,1.2,3.37Z"/><path d="M68,9.93c-2.87.66-3.9.89-5.47,2.24a5.88,5.88,0,0,0-2.08,4.92q0,3.81,2.32,5.46a9.14,9.14,0,0,0,5.43,1.65A35.12,35.12,0,0,0,71.82,24a10.79,10.79,0,0,0,3.84-1.14,7.59,7.59,0,0,0,3-2.75,9.63,9.63,0,0,0,1.25-5.29V7.1a5.4,5.4,0,0,0-2.5-4.74Q75,.76,70.14.76c-2.87,0-5.09.64-6.64,1.94A6.49,6.49,0,0,0,61.09,7h5.77a2.36,2.36,0,0,1,1.38-1.27,6.09,6.09,0,0,1,2.16-.34c2.93,0,3.87,1.21,3.72,2C74,8.52,69.52,9.61,68,9.93Zm6.18,2.58a0,0,0,0,1,0,0V14.6a5,5,0,0,1-1.38,3.72,5.15,5.15,0,0,1-3.79,1.36A3.31,3.31,0,0,1,66.86,19h0a2.72,2.72,0,0,1-.78-2v-.13a2.89,2.89,0,0,1,1.8-2.48A8.71,8.71,0,0,1,69,14l1.94-.42A17.17,17.17,0,0,0,74.22,12.51Z"/><path d="M108.82,6.53a3.55,3.55,0,0,1,1.25,3V21.27a2.83,2.83,0,0,0,3,2.93h3V10.75c0-4-1.07-6.69-3.19-8a13,13,0,0,0-7-2,16.43,16.43,0,0,0-3.67.56,7.47,7.47,0,0,0-3.06,1.59,8.14,8.14,0,0,0-3.45-1.72A17.37,17.37,0,0,0,91.75.76,13.35,13.35,0,0,0,85,2.91c-2,1.32-3.06,3.94-3.06,7.84V24.2H85.3A2.64,2.64,0,0,0,88,21.55v-12a3.59,3.59,0,0,1,1.21-3,4.39,4.39,0,0,1,2.77-1,4.56,4.56,0,0,1,2.81,1,3.53,3.53,0,0,1,1.26,3V24.2h5.92V9.55a3.53,3.53,0,0,1,1.26-3,4.66,4.66,0,0,1,5.64,0Z"/></g><g id="Kicks"><path d="M17.2,31.22l-.66.7v1.75H15.28V27.55h1.26v2.78l.56-.76,1.56-2h1.55L18,30.27l2.23,3.4h-1.5Z"/><path d="M37.57,33.67H36.31V27.55h1.26Z"/><path d="M59,31.63a2.14,2.14,0,0,1-.73,1.56,2.57,2.57,0,0,1-1.73.56A2.3,2.3,0,0,1,54.71,33,3.24,3.24,0,0,1,54,30.79v-.38a3.64,3.64,0,0,1,.31-1.55,2.25,2.25,0,0,1,.89-1,2.76,2.76,0,0,1,3,.21A2.33,2.33,0,0,1,59,29.63H57.77a1.27,1.27,0,0,0-.33-.86,1.22,1.22,0,0,0-.86-.27,1.06,1.06,0,0,0-.94.45,2.59,2.59,0,0,0-.33,1.41v.46a2.73,2.73,0,0,0,.3,1.45,1.06,1.06,0,0,0,1,.45,1,1,0,0,0,1.2-1.09Z"/><path d="M77.25,31.22l-.65.7v1.75H75.34V27.55H76.6v2.78l.55-.76,1.56-2h1.55l-2.17,2.72,2.23,3.4h-1.5Z"/><path d="M99.45,32.07a.63.63,0,0,0-.25-.55,3.47,3.47,0,0,0-.91-.41,7.07,7.07,0,0,1-1-.41,1.7,1.7,0,0,1-1.05-1.52,1.49,1.49,0,0,1,.28-.88,1.82,1.82,0,0,1,.81-.61,2.87,2.87,0,0,1,1.17-.22,2.72,2.72,0,0,1,1.17.24,1.86,1.86,0,0,1,.79.67,1.74,1.74,0,0,1,.29,1H99.46a.8.8,0,0,0-.27-.65,1,1,0,0,0-.74-.24,1.16,1.16,0,0,0-.72.2.62.62,0,0,0-.26.51.58.58,0,0,0,.3.5,3.32,3.32,0,0,0,.89.38,3.83,3.83,0,0,1,1.56.8,1.61,1.61,0,0,1,.5,1.2,1.46,1.46,0,0,1-.6,1.24,2.64,2.64,0,0,1-1.62.45,3.19,3.19,0,0,1-1.29-.25,2.1,2.1,0,0,1-.88-.71,1.85,1.85,0,0,1-.31-1h1.27c0,.67.4,1,1.21,1a1.19,1.19,0,0,0,.7-.18A.61.61,0,0,0,99.45,32.07Z"/></g></g></g></svg>